<?xml version="1.0" encoding="utf-8"?>
<!-- Generator: Adobe Illustrator 28.3.0, SVG Export Plug-In . SVG Version: 6.00 Build 0)  -->
<svg version="1.1" id="Layer_1" xmlns="http://www.w3.org/2000/svg" xmlns:xlink="http://www.w3.org/1999/xlink" x="0px" y="0px"
	 viewBox="0 0 1409.7 1500" style="enable-background:new 0 0 1409.7 1500;" xml:space="preserve">
<style type="text/css">
	.st0{fill:#0D0D0D;}
</style>
<path class="st0" d="M709.2,287.8c127.6,0,243.2,51.7,326.8,135.4s135.4,199.2,135.4,326.8c0,127.6-51.7,243.2-135.4,326.8
	c-83.7,83.7-199.2,135.4-326.8,135.4c-127.6,0-243.2-51.8-326.8-135.4C298.8,993.2,247,877.6,247,750
	c0-127.6,51.7-243.2,135.4-326.8C466,339.5,581.6,287.8,709.2,287.8L709.2,287.8z M1024.1,435.1c-80.6-80.6-191.9-130.4-314.9-130.4
	s-234.3,49.8-314.9,130.4C313.8,515.7,263.9,627,263.9,750c0,123,49.9,234.3,130.5,314.9c80.6,80.6,191.9,130.5,314.9,130.5
	s234.3-49.9,314.9-130.5c80.6-80.6,130.5-191.9,130.5-314.9C1154.6,627,1104.7,515.7,1024.1,435.1L1024.1,435.1z"/>
<path class="st0" d="M479.7,635.2c-25.4,0-46-20.6-46-46.1c0-25.4,20.6-46,46-46h459.1c25.4,0,46,20.6,46,46
	c0,25.4-20.6,46.1-46,46.1H479.7z"/>
<path class="st0" d="M479.7,796c-25.4,0-46-20.6-46-46c0-25.4,20.6-46,46-46h459.1c25.4,0,46,20.6,46,46c0,25.4-20.6,46-46,46H479.7
	z"/>
<path class="st0" d="M479.7,956.8c-25.4,0-46-20.6-46-46c0-25.4,20.6-46.1,46-46.1h459.1c25.4,0,46,20.6,46,46.1
	c0,25.4-20.6,46-46,46H479.7z"/>
</svg>
